solid OpenSCAD_Model
  facet normal -1.000000 0.000000 0.000000
    outer loop
      vertex 0.000000 4.859877 4.382721
      vertex 0.000000 11.100000 0.000000
      vertex 0.000000 4.550281 4.554561
    endloop
  endfacet
  facet normal -1.000000 0.000000 -0.000000
    outer loop
      vertex 0.000000 6.073885 7.660641
      vertex 0.000000 0.000000 9.281793
      vertex 0.000000 11.100000 9.281793
    endloop
  endfacet
  facet normal -1.000000 0.000000 -0.000000
    outer loop
      vertex 0.000000 0.000000 0.000000
      vertex 0.000000 0.000000 9.281793
      vertex 0.000000 3.802246 6.079533
    endloop
  endfacet
  facet normal -1.000000 0.000000 0.000000
    outer loop
      vertex 0.000000 0.000000 0.000000
      vertex 0.000000 3.802246 6.079533
      vertex 0.000000 3.820180 5.725898
    endloop
  endfacet
  facet normal -1.000000 0.000000 0.000000
    outer loop
      vertex 0.000000 0.000000 0.000000
      vertex 0.000000 3.820180 5.725898
      vertex 0.000000 3.908934 5.383113
    endloop
  endfacet
  facet normal -1.000000 0.000000 0.000000
    outer loop
      vertex 0.000000 0.000000 0.000000
      vertex 0.000000 3.908934 5.383113
      vertex 0.000000 4.064873 5.065210
    endloop
  endfacet
  facet normal -1.000000 0.000000 0.000000
    outer loop
      vertex 0.000000 0.000000 0.000000
      vertex 0.000000 4.064873 5.065210
      vertex 0.000000 4.281613 4.785205
    endloop
  endfacet
  facet normal -1.000000 0.000000 0.000000
    outer loop
      vertex 0.000000 0.000000 0.000000
      vertex 0.000000 4.281613 4.785205
      vertex 0.000000 4.550281 4.554561
    endloop
  endfacet
  facet normal -1.000000 -0.000000 0.000000
    outer loop
      vertex 0.000000 0.000000 0.000000
      vertex 0.000000 4.550281 4.554561
      vertex 0.000000 11.100000 0.000000
    endloop
  endfacet
  facet normal -1.000000 0.000000 0.000000
    outer loop
      vertex 0.000000 5.197728 4.276720
      vertex 0.000000 11.100000 0.000000
      vertex 0.000000 4.859877 4.382721
    endloop
  endfacet
  facet normal -1.000000 0.000000 0.000000
    outer loop
      vertex 0.000000 5.550000 4.240897
      vertex 0.000000 11.100000 0.000000
      vertex 0.000000 5.197728 4.276720
    endloop
  endfacet
  facet normal -1.000000 0.000000 0.000000
    outer loop
      vertex 0.000000 5.902272 4.276720
      vertex 0.000000 11.100000 0.000000
      vertex 0.000000 5.550000 4.240897
    endloop
  endfacet
  facet normal -1.000000 0.000000 0.000000
    outer loop
      vertex 0.000000 6.240123 4.382721
      vertex 0.000000 11.100000 0.000000
      vertex 0.000000 5.902272 4.276720
    endloop
  endfacet
  facet normal -1.000000 0.000000 0.000000
    outer loop
      vertex 0.000000 11.100000 0.000000
      vertex 0.000000 6.240123 4.382721
      vertex 0.000000 6.549719 4.554561
    endloop
  endfacet
  facet normal -1.000000 0.000000 0.000000
    outer loop
      vertex 0.000000 11.100000 0.000000
      vertex 0.000000 6.549719 4.554561
      vertex 0.000000 6.818387 4.785205
    endloop
  endfacet
  facet normal -1.000000 0.000000 0.000000
    outer loop
      vertex 0.000000 11.100000 0.000000
      vertex 0.000000 6.818387 4.785205
      vertex 0.000000 11.100000 9.281793
    endloop
  endfacet
  facet normal -1.000000 -0.000000 0.000000
    outer loop
      vertex 0.000000 7.191066 5.383113
      vertex 0.000000 11.100000 9.281793
      vertex 0.000000 7.035127 5.065210
    endloop
  endfacet
  facet normal -1.000000 -0.000000 -0.000000
    outer loop
      vertex 0.000000 5.372955 7.731918
      vertex 0.000000 0.000000 9.281793
      vertex 0.000000 5.727045 7.731918
    endloop
  endfacet
  facet normal -1.000000 0.000000 -0.000000
    outer loop
      vertex 0.000000 3.978842 6.761587
      vertex 0.000000 0.000000 9.281793
      vertex 0.000000 4.166142 7.062082
    endloop
  endfacet
  facet normal -1.000000 0.000000 0.000000
    outer loop
      vertex 0.000000 7.191066 5.383113
      vertex 0.000000 7.279820 5.725898
      vertex 0.000000 11.100000 9.281793
    endloop
  endfacet
  facet normal -1.000000 0.000000 -0.000000
    outer loop
      vertex 0.000000 4.166142 7.062082
      vertex 0.000000 0.000000 9.281793
      vertex 0.000000 4.410098 7.318724
    endloop
  endfacet
  facet normal -1.000000 0.000000 0.000000
    outer loop
      vertex 0.000000 7.279820 5.725898
      vertex 0.000000 7.297754 6.079533
      vertex 0.000000 11.100000 9.281793
    endloop
  endfacet
  facet normal -1.000000 0.000000 -0.000000
    outer loop
      vertex 0.000000 7.297754 6.079533
      vertex 0.000000 7.244135 6.429539
      vertex 0.000000 11.100000 9.281793
    endloop
  endfacet
  facet normal -1.000000 0.000000 -0.000000
    outer loop
      vertex 0.000000 4.410098 7.318724
      vertex 0.000000 0.000000 9.281793
      vertex 0.000000 4.700722 7.521004
    endloop
  endfacet
  facet normal -1.000000 0.000000 -0.000000
    outer loop
      vertex 0.000000 7.244135 6.429539
      vertex 0.000000 7.121158 6.761587
      vertex 0.000000 11.100000 9.281793
    endloop
  endfacet
  facet normal -1.000000 0.000000 -0.000000
    outer loop
      vertex 0.000000 4.700722 7.521004
      vertex 0.000000 0.000000 9.281793
      vertex 0.000000 5.026115 7.660641
    endloop
  endfacet
  facet normal -1.000000 0.000000 -0.000000
    outer loop
      vertex 0.000000 7.121158 6.761587
      vertex 0.000000 6.933858 7.062082
      vertex 0.000000 11.100000 9.281793
    endloop
  endfacet
  facet normal -1.000000 0.000000 -0.000000
    outer loop
      vertex 0.000000 6.933858 7.062082
      vertex 0.000000 6.689902 7.318724
      vertex 0.000000 11.100000 9.281793
    endloop
  endfacet
  facet normal -1.000000 0.000000 -0.000000
    outer loop
      vertex 0.000000 5.026115 7.660641
      vertex 0.000000 0.000000 9.281793
      vertex 0.000000 5.372955 7.731918
    endloop
  endfacet
  facet normal -1.000000 0.000000 -0.000000
    outer loop
      vertex 0.000000 6.689902 7.318724
      vertex 0.000000 6.399278 7.521004
      vertex 0.000000 11.100000 9.281793
    endloop
  endfacet
  facet normal -1.000000 -0.000000 -0.000000
    outer loop
      vertex 0.000000 5.727045 7.731918
      vertex 0.000000 0.000000 9.281793
      vertex 0.000000 6.073885 7.660641
    endloop
  endfacet
  facet normal -1.000000 0.000000 -0.000000
    outer loop
      vertex 0.000000 6.399278 7.521004
      vertex 0.000000 6.073885 7.660641
      vertex 0.000000 11.100000 9.281793
    endloop
  endfacet
  facet normal -1.000000 0.000000 -0.000000
    outer loop
      vertex 0.000000 3.855865 6.429539
      vertex 0.000000 0.000000 9.281793
      vertex 0.000000 3.978842 6.761587
    endloop
  endfacet
  facet normal -1.000000 0.000000 -0.000000
    outer loop
      vertex 0.000000 3.802246 6.079533
      vertex 0.000000 0.000000 9.281793
      vertex 0.000000 3.855865 6.429539
    endloop
  endfacet
  facet normal -1.000000 -0.000000 0.000000
    outer loop
      vertex 0.000000 7.035127 5.065210
      vertex 0.000000 11.100000 9.281793
      vertex 0.000000 6.818387 4.785205
    endloop
  endfacet
  facet normal 0.000000 -1.000000 0.000000
    outer loop
      vertex 0.000000 0.000000 9.281793
      vertex 0.000000 0.000000 0.000000
      vertex 37.109103 0.000000 0.000000
    endloop
  endfacet
  facet normal 0.000000 -1.000000 0.000000
    outer loop
      vertex 32.220461 0.000000 4.296762
      vertex 0.000000 0.000000 9.281793
      vertex 37.109103 0.000000 0.000000
    endloop
  endfacet
  facet normal 0.000000 -1.000000 0.000000
    outer loop
      vertex 32.220461 0.000000 4.296762
      vertex 31.888413 0.000000 4.419739
      vertex 0.000000 0.000000 9.281793
    endloop
  endfacet
  facet normal 0.000000 -1.000000 0.000000
    outer loop
      vertex 30.918082 0.000000 6.167942
      vertex 0.000000 0.000000 9.281793
      vertex 30.918082 0.000000 5.813852
    endloop
  endfacet
  facet normal 0.000000 -1.000000 0.000000
    outer loop
      vertex 30.989359 0.000000 6.514782
      vertex 0.000000 0.000000 9.281793
      vertex 30.918082 0.000000 6.167942
    endloop
  endfacet
  facet normal -0.000000 -1.000000 0.000000
    outer loop
      vertex 33.584790 0.000000 7.476024
      vertex 33.864795 0.000000 7.259284
      vertex 37.109103 0.000000 9.281793
    endloop
  endfacet
  facet normal 0.000000 -1.000000 0.000000
    outer loop
      vertex 31.128996 0.000000 6.840175
      vertex 0.000000 0.000000 9.281793
      vertex 30.989359 0.000000 6.514782
    endloop
  endfacet
  facet normal 0.000000 -1.000000 0.000000
    outer loop
      vertex 31.331276 0.000000 7.130799
      vertex 0.000000 0.000000 9.281793
      vertex 31.128996 0.000000 6.840175
    endloop
  endfacet
  facet normal 0.000000 -1.000000 0.000000
    outer loop
      vertex 31.587918 0.000000 7.374755
      vertex 0.000000 0.000000 9.281793
      vertex 31.331276 0.000000 7.130799
    endloop
  endfacet
  facet normal -0.000000 -1.000000 0.000000
    outer loop
      vertex 32.924102 0.000000 7.720717
      vertex 33.266887 0.000000 7.631963
      vertex 37.109103 0.000000 9.281793
    endloop
  endfacet
  facet normal 0.000000 -1.000000 0.000000
    outer loop
      vertex 31.888413 0.000000 7.562055
      vertex 0.000000 0.000000 9.281793
      vertex 31.587918 0.000000 7.374755
    endloop
  endfacet
  facet normal 0.000000 -1.000000 0.000000
    outer loop
      vertex 32.220461 0.000000 7.685032
      vertex 0.000000 0.000000 9.281793
      vertex 31.888413 0.000000 7.562055
    endloop
  endfacet
  facet normal 0.000000 -1.000000 0.000000
    outer loop
      vertex 37.109103 0.000000 9.281793
      vertex 0.000000 0.000000 9.281793
      vertex 32.220461 0.000000 7.685032
    endloop
  endfacet
  facet normal -0.000000 -1.000000 0.000000
    outer loop
      vertex 33.266887 0.000000 7.631963
      vertex 33.584790 0.000000 7.476024
      vertex 37.109103 0.000000 9.281793
    endloop
  endfacet
  facet normal 0.000000 -1.000000 0.000000
    outer loop
      vertex 34.267279 0.000000 6.681020
      vertex 34.373280 0.000000 6.343169
      vertex 37.109103 0.000000 0.000000
    endloop
  endfacet
  facet normal 0.000000 -1.000000 0.000000
    outer loop
      vertex 32.924102 0.000000 4.261077
      vertex 32.570467 0.000000 4.243143
      vertex 37.109103 0.000000 0.000000
    endloop
  endfacet
  facet normal 0.000000 -1.000000 0.000000
    outer loop
      vertex 34.373280 0.000000 6.343169
      vertex 34.409103 0.000000 5.990897
      vertex 37.109103 0.000000 0.000000
    endloop
  endfacet
  facet normal 0.000000 -1.000000 0.000000
    outer loop
      vertex 37.109103 0.000000 9.281793
      vertex 33.864795 0.000000 7.259284
      vertex 34.095439 0.000000 6.990616
    endloop
  endfacet
  facet normal 0.000000 -1.000000 0.000000
    outer loop
      vertex 37.109103 0.000000 9.281793
      vertex 34.267279 0.000000 6.681020
      vertex 37.109103 0.000000 0.000000
    endloop
  endfacet
  facet normal 0.000000 -1.000000 0.000000
    outer loop
      vertex 37.109103 0.000000 9.281793
      vertex 34.095439 0.000000 6.990616
      vertex 34.267279 0.000000 6.681020
    endloop
  endfacet
  facet normal 0.000000 -1.000000 0.000000
    outer loop
      vertex 34.409103 0.000000 5.990897
      vertex 34.373280 0.000000 5.638625
      vertex 37.109103 0.000000 0.000000
    endloop
  endfacet
  facet normal 0.000000 -1.000000 0.000000
    outer loop
      vertex 34.373280 0.000000 5.638625
      vertex 34.267279 0.000000 5.300774
      vertex 37.109103 0.000000 0.000000
    endloop
  endfacet
  facet normal 0.000000 -1.000000 0.000000
    outer loop
      vertex 34.267279 0.000000 5.300774
      vertex 34.095439 0.000000 4.991178
      vertex 37.109103 0.000000 0.000000
    endloop
  endfacet
  facet normal 0.000000 -1.000000 0.000000
    outer loop
      vertex 34.095439 0.000000 4.991178
      vertex 33.864795 0.000000 4.722510
      vertex 37.109103 0.000000 0.000000
    endloop
  endfacet
  facet normal 0.000000 -1.000000 0.000000
    outer loop
      vertex 33.864795 0.000000 4.722510
      vertex 33.584790 0.000000 4.505770
      vertex 37.109103 0.000000 0.000000
    endloop
  endfacet
  facet normal 0.000000 -1.000000 0.000000
    outer loop
      vertex 33.584790 0.000000 4.505770
      vertex 33.266887 0.000000 4.349831
      vertex 37.109103 0.000000 0.000000
    endloop
  endfacet
  facet normal 0.000000 -1.000000 0.000000
    outer loop
      vertex 33.266887 0.000000 4.349831
      vertex 32.924102 0.000000 4.261077
      vertex 37.109103 0.000000 0.000000
    endloop
  endfacet
  facet normal 0.000000 -1.000000 0.000000
    outer loop
      vertex 32.570467 0.000000 4.243143
      vertex 32.220461 0.000000 4.296762
      vertex 37.109103 0.000000 0.000000
    endloop
  endfacet
  facet normal 0.000000 -1.000000 0.000000
    outer loop
      vertex 31.587918 0.000000 4.607039
      vertex 0.000000 0.000000 9.281793
      vertex 31.888413 0.000000 4.419739
    endloop
  endfacet
  facet normal 0.000000 -1.000000 0.000000
    outer loop
      vertex 31.331276 0.000000 4.850995
      vertex 0.000000 0.000000 9.281793
      vertex 31.587918 0.000000 4.607039
    endloop
  endfacet
  facet normal 0.000000 -1.000000 0.000000
    outer loop
      vertex 31.128996 0.000000 5.141619
      vertex 0.000000 0.000000 9.281793
      vertex 31.331276 0.000000 4.850995
    endloop
  endfacet
  facet normal 0.000000 -1.000000 0.000000
    outer loop
      vertex 30.989359 0.000000 5.467012
      vertex 0.000000 0.000000 9.281793
      vertex 31.128996 0.000000 5.141619
    endloop
  endfacet
  facet normal 0.000000 -1.000000 0.000000
    outer loop
      vertex 30.918082 0.000000 5.813852
      vertex 0.000000 0.000000 9.281793
      vertex 30.989359 0.000000 5.467012
    endloop
  endfacet
  facet normal 0.000000 -1.000000 0.000000
    outer loop
      vertex 32.220461 0.000000 7.685032
      vertex 32.570467 0.000000 7.738651
      vertex 37.109103 0.000000 9.281793
    endloop
  endfacet
  facet normal -0.000000 -1.000000 0.000000
    outer loop
      vertex 32.570467 0.000000 7.738651
      vertex 32.924102 0.000000 7.720717
      vertex 37.109103 0.000000 9.281793
    endloop
  endfacet
  facet normal -0.000000 -0.000000 -1.000000
    outer loop
      vertex 0.000000 0.000000 0.000000
      vertex 0.000000 11.100000 0.000000
      vertex 37.109103 0.000000 0.000000
    endloop
  endfacet
  facet normal 0.000000 0.000000 -1.000000
    outer loop
      vertex 37.109103 0.000000 0.000000
      vertex 0.000000 11.100000 0.000000
      vertex 37.109103 11.100000 0.000000
    endloop
  endfacet
  facet normal 0.000000 1.000000 0.000000
    outer loop
      vertex 0.000000 11.100000 0.000000
      vertex 0.000000 11.100000 9.281793
      vertex 37.109103 11.100000 0.000000
    endloop
  endfacet
  facet normal 0.000000 1.000000 0.000000
    outer loop
      vertex 32.570467 11.100000 7.738651
      vertex 0.000000 11.100000 9.281793
      vertex 37.109103 11.100000 9.281793
    endloop
  endfacet
  facet normal 0.000000 1.000000 0.000000
    outer loop
      vertex 30.918082 11.100000 5.813852
      vertex 0.000000 11.100000 9.281793
      vertex 30.918082 11.100000 6.167942
    endloop
  endfacet
  facet normal 0.000000 1.000000 0.000000
    outer loop
      vertex 30.989359 11.100000 5.467012
      vertex 0.000000 11.100000 9.281793
      vertex 30.918082 11.100000 5.813852
    endloop
  endfacet
  facet normal 0.000000 1.000000 0.000000
    outer loop
      vertex 31.128996 11.100000 5.141619
      vertex 0.000000 11.100000 9.281793
      vertex 30.989359 11.100000 5.467012
    endloop
  endfacet
  facet normal 0.000000 1.000000 0.000000
    outer loop
      vertex 31.331276 11.100000 4.850995
      vertex 0.000000 11.100000 9.281793
      vertex 31.128996 11.100000 5.141619
    endloop
  endfacet
  facet normal 0.000000 1.000000 0.000000
    outer loop
      vertex 31.587918 11.100000 4.607039
      vertex 0.000000 11.100000 9.281793
      vertex 31.331276 11.100000 4.850995
    endloop
  endfacet
  facet normal 0.000000 1.000000 0.000000
    outer loop
      vertex 37.109103 11.100000 0.000000
      vertex 0.000000 11.100000 9.281793
      vertex 31.587918 11.100000 4.607039
    endloop
  endfacet
  facet normal -0.000000 1.000000 -0.000000
    outer loop
      vertex 32.220461 11.100000 4.296762
      vertex 37.109103 11.100000 0.000000
      vertex 31.888413 11.100000 4.419739
    endloop
  endfacet
  facet normal -0.000000 1.000000 -0.000000
    outer loop
      vertex 32.570467 11.100000 4.243143
      vertex 37.109103 11.100000 0.000000
      vertex 32.220461 11.100000 4.296762
    endloop
  endfacet
  facet normal 0.000000 1.000000 -0.000000
    outer loop
      vertex 32.924102 11.100000 4.261077
      vertex 37.109103 11.100000 0.000000
      vertex 32.570467 11.100000 4.243143
    endloop
  endfacet
  facet normal 0.000000 1.000000 -0.000000
    outer loop
      vertex 34.267279 11.100000 5.300774
      vertex 37.109103 11.100000 9.281793
      vertex 34.095439 11.100000 4.991178
    endloop
  endfacet
  facet normal 0.000000 1.000000 0.000000
    outer loop
      vertex 37.109103 11.100000 0.000000
      vertex 32.924102 11.100000 4.261077
      vertex 33.266887 11.100000 4.349831
    endloop
  endfacet
  facet normal 0.000000 1.000000 0.000000
    outer loop
      vertex 37.109103 11.100000 0.000000
      vertex 33.266887 11.100000 4.349831
      vertex 33.584790 11.100000 4.505770
    endloop
  endfacet
  facet normal 0.000000 1.000000 0.000000
    outer loop
      vertex 37.109103 11.100000 0.000000
      vertex 33.584790 11.100000 4.505770
      vertex 33.864795 11.100000 4.722510
    endloop
  endfacet
  facet normal 0.000000 1.000000 0.000000
    outer loop
      vertex 37.109103 11.100000 0.000000
      vertex 33.864795 11.100000 4.722510
      vertex 34.095439 11.100000 4.991178
    endloop
  endfacet
  facet normal 0.000000 1.000000 0.000000
    outer loop
      vertex 37.109103 11.100000 0.000000
      vertex 34.095439 11.100000 4.991178
      vertex 37.109103 11.100000 9.281793
    endloop
  endfacet
  facet normal 0.000000 1.000000 -0.000000
    outer loop
      vertex 34.373280 11.100000 5.638625
      vertex 37.109103 11.100000 9.281793
      vertex 34.267279 11.100000 5.300774
    endloop
  endfacet
  facet normal 0.000000 1.000000 -0.000000
    outer loop
      vertex 34.409103 11.100000 5.990897
      vertex 37.109103 11.100000 9.281793
      vertex 34.373280 11.100000 5.638625
    endloop
  endfacet
  facet normal 0.000000 1.000000 0.000000
    outer loop
      vertex 34.373280 11.100000 6.343169
      vertex 37.109103 11.100000 9.281793
      vertex 34.409103 11.100000 5.990897
    endloop
  endfacet
  facet normal 0.000000 1.000000 0.000000
    outer loop
      vertex 33.266887 11.100000 7.631963
      vertex 37.109103 11.100000 9.281793
      vertex 33.584790 11.100000 7.476024
    endloop
  endfacet
  facet normal 0.000000 1.000000 0.000000
    outer loop
      vertex 34.373280 11.100000 6.343169
      vertex 34.267279 11.100000 6.681020
      vertex 37.109103 11.100000 9.281793
    endloop
  endfacet
  facet normal 0.000000 1.000000 0.000000
    outer loop
      vertex 34.267279 11.100000 6.681020
      vertex 34.095439 11.100000 6.990616
      vertex 37.109103 11.100000 9.281793
    endloop
  endfacet
  facet normal 0.000000 1.000000 0.000000
    outer loop
      vertex 34.095439 11.100000 6.990616
      vertex 33.864795 11.100000 7.259284
      vertex 37.109103 11.100000 9.281793
    endloop
  endfacet
  facet normal 0.000000 1.000000 0.000000
    outer loop
      vertex 33.864795 11.100000 7.259284
      vertex 33.584790 11.100000 7.476024
      vertex 37.109103 11.100000 9.281793
    endloop
  endfacet
  facet normal 0.000000 1.000000 0.000000
    outer loop
      vertex 32.220461 11.100000 7.685032
      vertex 0.000000 11.100000 9.281793
      vertex 32.570467 11.100000 7.738651
    endloop
  endfacet
  facet normal 0.000000 1.000000 0.000000
    outer loop
      vertex 31.888413 11.100000 7.562055
      vertex 0.000000 11.100000 9.281793
      vertex 32.220461 11.100000 7.685032
    endloop
  endfacet
  facet normal 0.000000 1.000000 0.000000
    outer loop
      vertex 33.266887 11.100000 7.631963
      vertex 32.924102 11.100000 7.720717
      vertex 37.109103 11.100000 9.281793
    endloop
  endfacet
  facet normal 0.000000 1.000000 0.000000
    outer loop
      vertex 32.924102 11.100000 7.720717
      vertex 32.570467 11.100000 7.738651
      vertex 37.109103 11.100000 9.281793
    endloop
  endfacet
  facet normal 0.000000 1.000000 0.000000
    outer loop
      vertex 31.587918 11.100000 7.374755
      vertex 0.000000 11.100000 9.281793
      vertex 31.888413 11.100000 7.562055
    endloop
  endfacet
  facet normal 0.000000 1.000000 0.000000
    outer loop
      vertex 31.331276 11.100000 7.130799
      vertex 0.000000 11.100000 9.281793
      vertex 31.587918 11.100000 7.374755
    endloop
  endfacet
  facet normal 0.000000 1.000000 0.000000
    outer loop
      vertex 31.128996 11.100000 6.840175
      vertex 0.000000 11.100000 9.281793
      vertex 31.331276 11.100000 7.130799
    endloop
  endfacet
  facet normal 0.000000 1.000000 0.000000
    outer loop
      vertex 30.989359 11.100000 6.514782
      vertex 0.000000 11.100000 9.281793
      vertex 31.128996 11.100000 6.840175
    endloop
  endfacet
  facet normal 0.000000 1.000000 0.000000
    outer loop
      vertex 30.918082 11.100000 6.167942
      vertex 0.000000 11.100000 9.281793
      vertex 30.989359 11.100000 6.514782
    endloop
  endfacet
  facet normal -0.000000 1.000000 -0.000000
    outer loop
      vertex 31.888413 11.100000 4.419739
      vertex 37.109103 11.100000 0.000000
      vertex 31.587918 11.100000 4.607039
    endloop
  endfacet
  facet normal 0.000000 -0.000000 1.000000
    outer loop
      vertex 2.700000 2.700000 9.281793
      vertex 0.000000 0.000000 9.281793
      vertex 37.109103 0.000000 9.281793
    endloop
  endfacet
  facet normal 0.000000 -0.000000 1.000000
    outer loop
      vertex 0.000000 11.100000 9.281793
      vertex 0.000000 0.000000 9.281793
      vertex 2.700000 2.700000 9.281793
    endloop
  endfacet
  facet normal 0.000000 0.000000 1.000000
    outer loop
      vertex 2.700000 8.400000 9.281793
      vertex 37.109103 8.400000 9.281793
      vertex 0.000000 11.100000 9.281793
    endloop
  endfacet
  facet normal 0.000000 0.000000 1.000000
    outer loop
      vertex 0.000000 11.100000 9.281793
      vertex 2.700000 2.700000 9.281793
      vertex 2.700000 8.400000 9.281793
    endloop
  endfacet
  facet normal 0.000000 0.000000 1.000000
    outer loop
      vertex 37.109103 11.100000 9.281793
      vertex 0.000000 11.100000 9.281793
      vertex 37.109103 8.400000 9.281793
    endloop
  endfacet
  facet normal 0.000000 0.000000 1.000000
    outer loop
      vertex 37.109103 2.700000 9.281793
      vertex 2.700000 2.700000 9.281793
      vertex 37.109103 0.000000 9.281793
    endloop
  endfacet
  facet normal 0.000000 0.988468 -0.151428
    outer loop
      vertex 2.700000 3.855865 6.429539
      vertex 2.700000 3.802246 6.079533
      vertex 0.000000 3.855865 6.429539
    endloop
  endfacet
  facet normal 0.000000 0.988468 -0.151428
    outer loop
      vertex 0.000000 3.855865 6.429539
      vertex 2.700000 3.802246 6.079533
      vertex 0.000000 3.802246 6.079533
    endloop
  endfacet
  facet normal -0.000000 0.998717 0.050648
    outer loop
      vertex 2.700000 3.820180 5.725898
      vertex 0.000000 3.820180 5.725898
      vertex 2.700000 3.802246 6.079533
    endloop
  endfacet
  facet normal -0.000000 0.998717 0.050648
    outer loop
      vertex 2.700000 3.802246 6.079533
      vertex 0.000000 3.820180 5.725898
      vertex 0.000000 3.802246 6.079533
    endloop
  endfacet
  facet normal 0.000000 0.937752 -0.347305
    outer loop
      vertex 2.700000 3.978842 6.761587
      vertex 2.700000 3.855865 6.429539
      vertex 0.000000 3.978842 6.761587
    endloop
  endfacet
  facet normal 0.000000 0.937752 -0.347305
    outer loop
      vertex 0.000000 3.978842 6.761587
      vertex 2.700000 3.855865 6.429539
      vertex 0.000000 3.855865 6.429539
    endloop
  endfacet
  facet normal 0.000000 0.848644 -0.528964
    outer loop
      vertex 2.700000 4.166142 7.062082
      vertex 2.700000 3.978842 6.761587
      vertex 0.000000 4.166142 7.062082
    endloop
  endfacet
  facet normal 0.000000 0.848644 -0.528964
    outer loop
      vertex 0.000000 4.166142 7.062082
      vertex 2.700000 3.978842 6.761587
      vertex 0.000000 3.978842 6.761587
    endloop
  endfacet
  facet normal 0.000000 0.724793 -0.688966
    outer loop
      vertex 2.700000 4.410098 7.318724
      vertex 2.700000 4.166142 7.062082
      vertex 0.000000 4.410098 7.318724
    endloop
  endfacet
  facet normal 0.000000 0.724793 -0.688966
    outer loop
      vertex 0.000000 4.410098 7.318724
      vertex 2.700000 4.166142 7.062082
      vertex 0.000000 4.166142 7.062082
    endloop
  endfacet
  facet normal 0.000000 0.571268 -0.820764
    outer loop
      vertex 2.700000 4.700722 7.521004
      vertex 2.700000 4.410098 7.318724
      vertex 0.000000 4.700722 7.521004
    endloop
  endfacet
  facet normal 0.000000 0.571268 -0.820764
    outer loop
      vertex 0.000000 4.700722 7.521004
      vertex 2.700000 4.410098 7.318724
      vertex 0.000000 4.410098 7.318724
    endloop
  endfacet
  facet normal 0.000000 0.394356 -0.918958
    outer loop
      vertex 2.700000 5.026115 7.660641
      vertex 2.700000 4.700722 7.521004
      vertex 0.000000 5.026115 7.660641
    endloop
  endfacet
  facet normal 0.000000 0.394356 -0.918958
    outer loop
      vertex 0.000000 5.026115 7.660641
      vertex 2.700000 4.700722 7.521004
      vertex 0.000000 4.700722 7.521004
    endloop
  endfacet
  facet normal 0.000000 0.201297 -0.979530
    outer loop
      vertex 2.700000 5.372955 7.731918
      vertex 2.700000 5.026115 7.660641
      vertex 0.000000 5.372955 7.731918
    endloop
  endfacet
  facet normal 0.000000 0.201297 -0.979530
    outer loop
      vertex 0.000000 5.372955 7.731918
      vertex 2.700000 5.026115 7.660641
      vertex 0.000000 5.026115 7.660641
    endloop
  endfacet
  facet normal 0.000000 0.000000 -1.000000
    outer loop
      vertex 2.700000 5.727045 7.731918
      vertex 2.700000 5.372955 7.731918
      vertex 0.000000 5.727045 7.731918
    endloop
  endfacet
  facet normal 0.000000 0.000000 -1.000000
    outer loop
      vertex 0.000000 5.727045 7.731918
      vertex 2.700000 5.372955 7.731918
      vertex 0.000000 5.372955 7.731918
    endloop
  endfacet
  facet normal 0.000000 -0.201297 -0.979530
    outer loop
      vertex 2.700000 6.073885 7.660641
      vertex 2.700000 5.727045 7.731918
      vertex 0.000000 6.073885 7.660641
    endloop
  endfacet
  facet normal 0.000000 -0.201297 -0.979530
    outer loop
      vertex 0.000000 6.073885 7.660641
      vertex 2.700000 5.727045 7.731918
      vertex 0.000000 5.727045 7.731918
    endloop
  endfacet
  facet normal 0.000000 -0.394356 -0.918958
    outer loop
      vertex 2.700000 6.399278 7.521004
      vertex 2.700000 6.073885 7.660641
      vertex 0.000000 6.399278 7.521004
    endloop
  endfacet
  facet normal 0.000000 -0.394356 -0.918958
    outer loop
      vertex 0.000000 6.399278 7.521004
      vertex 2.700000 6.073885 7.660641
      vertex 0.000000 6.073885 7.660641
    endloop
  endfacet
  facet normal 0.000000 -0.571268 -0.820764
    outer loop
      vertex 2.700000 6.689902 7.318724
      vertex 2.700000 6.399278 7.521004
      vertex 0.000000 6.689902 7.318724
    endloop
  endfacet
  facet normal 0.000000 -0.571268 -0.820764
    outer loop
      vertex 0.000000 6.689902 7.318724
      vertex 2.700000 6.399278 7.521004
      vertex 0.000000 6.399278 7.521004
    endloop
  endfacet
  facet normal -0.000000 -0.724793 -0.688966
    outer loop
      vertex 0.000000 6.933858 7.062082
      vertex 2.700000 6.933858 7.062082
      vertex 2.700000 6.689902 7.318724
    endloop
  endfacet
  facet normal 0.000000 -0.724793 -0.688966
    outer loop
      vertex 0.000000 6.689902 7.318724
      vertex 0.000000 6.933858 7.062082
      vertex 2.700000 6.689902 7.318724
    endloop
  endfacet
  facet normal 0.000000 -0.848644 -0.528964
    outer loop
      vertex 0.000000 7.121158 6.761587
      vertex 2.700000 7.121158 6.761587
      vertex 2.700000 6.933858 7.062082
    endloop
  endfacet
  facet normal -0.000000 -0.848644 -0.528964
    outer loop
      vertex 0.000000 6.933858 7.062082
      vertex 0.000000 7.121158 6.761587
      vertex 2.700000 6.933858 7.062082
    endloop
  endfacet
  facet normal -0.000000 -0.937752 -0.347305
    outer loop
      vertex 0.000000 7.244135 6.429539
      vertex 2.700000 7.244135 6.429539
      vertex 2.700000 7.121158 6.761587
    endloop
  endfacet
  facet normal 0.000000 -0.937752 -0.347305
    outer loop
      vertex 0.000000 7.121158 6.761587
      vertex 0.000000 7.244135 6.429539
      vertex 2.700000 7.121158 6.761587
    endloop
  endfacet
  facet normal 0.000000 -0.988468 -0.151428
    outer loop
      vertex 0.000000 7.297754 6.079533
      vertex 2.700000 7.297754 6.079533
      vertex 2.700000 7.244135 6.429539
    endloop
  endfacet
  facet normal -0.000000 -0.988468 -0.151428
    outer loop
      vertex 0.000000 7.244135 6.429539
      vertex 0.000000 7.297754 6.079533
      vertex 2.700000 7.244135 6.429539
    endloop
  endfacet
  facet normal -0.000000 -0.998717 0.050648
    outer loop
      vertex 2.700000 7.279820 5.725898
      vertex 2.700000 7.297754 6.079533
      vertex 0.000000 7.297754 6.079533
    endloop
  endfacet
  facet normal 0.000000 -0.998717 0.050648
    outer loop
      vertex 0.000000 7.279820 5.725898
      vertex 2.700000 7.279820 5.725898
      vertex 0.000000 7.297754 6.079533
    endloop
  endfacet
  facet normal 0.000000 -0.968077 0.250655
    outer loop
      vertex 2.700000 7.191066 5.383113
      vertex 2.700000 7.279820 5.725898
      vertex 0.000000 7.279820 5.725898
    endloop
  endfacet
  facet normal 0.000000 -0.968077 0.250655
    outer loop
      vertex 0.000000 7.191066 5.383113
      vertex 2.700000 7.191066 5.383113
      vertex 0.000000 7.279820 5.725898
    endloop
  endfacet
  facet normal 0.000000 -0.897804 0.440394
    outer loop
      vertex 2.700000 7.035127 5.065210
      vertex 2.700000 7.191066 5.383113
      vertex 0.000000 7.191066 5.383113
    endloop
  endfacet
  facet normal 0.000000 -0.897804 0.440394
    outer loop
      vertex 0.000000 7.035127 5.065210
      vertex 2.700000 7.035127 5.065210
      vertex 0.000000 7.191066 5.383113
    endloop
  endfacet
  facet normal 0.000000 -0.790776 0.612106
    outer loop
      vertex 2.700000 6.818387 4.785205
      vertex 2.700000 7.035127 5.065210
      vertex 0.000000 7.035127 5.065210
    endloop
  endfacet
  facet normal 0.000000 -0.790776 0.612106
    outer loop
      vertex 0.000000 6.818387 4.785205
      vertex 2.700000 6.818387 4.785205
      vertex 0.000000 7.035127 5.065210
    endloop
  endfacet
  facet normal 0.000000 -0.651373 0.758758
    outer loop
      vertex 2.700000 6.549719 4.554561
      vertex 2.700000 6.818387 4.785205
      vertex 0.000000 6.818387 4.785205
    endloop
  endfacet
  facet normal 0.000000 -0.651373 0.758758
    outer loop
      vertex 0.000000 6.549719 4.554561
      vertex 2.700000 6.549719 4.554561
      vertex 0.000000 6.818387 4.785205
    endloop
  endfacet
  facet normal 0.000000 -0.485302 0.874346
    outer loop
      vertex 2.700000 6.240123 4.382721
      vertex 2.700000 6.549719 4.554561
      vertex 0.000000 6.549719 4.554561
    endloop
  endfacet
  facet normal 0.000000 -0.485302 0.874346
    outer loop
      vertex 0.000000 6.240123 4.382721
      vertex 2.700000 6.240123 4.382721
      vertex 0.000000 6.549719 4.554561
    endloop
  endfacet
  facet normal 0.000000 -0.299362 0.954140
    outer loop
      vertex 2.700000 5.902272 4.276720
      vertex 2.700000 6.240123 4.382721
      vertex 0.000000 6.240123 4.382721
    endloop
  endfacet
  facet normal 0.000000 -0.299362 0.954140
    outer loop
      vertex 0.000000 5.902272 4.276720
      vertex 2.700000 5.902272 4.276720
      vertex 0.000000 6.240123 4.382721
    endloop
  endfacet
  facet normal 0.000000 -0.101170 0.994869
    outer loop
      vertex 2.700000 5.550000 4.240897
      vertex 2.700000 5.902272 4.276720
      vertex 0.000000 5.902272 4.276720
    endloop
  endfacet
  facet normal 0.000000 -0.101170 0.994869
    outer loop
      vertex 0.000000 5.550000 4.240897
      vertex 2.700000 5.550000 4.240897
      vertex 0.000000 5.902272 4.276720
    endloop
  endfacet
  facet normal 0.000000 0.101170 0.994869
    outer loop
      vertex 2.700000 5.197728 4.276720
      vertex 2.700000 5.550000 4.240897
      vertex 0.000000 5.550000 4.240897
    endloop
  endfacet
  facet normal 0.000000 0.101170 0.994869
    outer loop
      vertex 0.000000 5.197728 4.276720
      vertex 2.700000 5.197728 4.276720
      vertex 0.000000 5.550000 4.240897
    endloop
  endfacet
  facet normal 0.000000 0.299362 0.954140
    outer loop
      vertex 2.700000 4.859877 4.382721
      vertex 2.700000 5.197728 4.276720
      vertex 0.000000 5.197728 4.276720
    endloop
  endfacet
  facet normal 0.000000 0.299362 0.954140
    outer loop
      vertex 0.000000 4.859877 4.382721
      vertex 2.700000 4.859877 4.382721
      vertex 0.000000 5.197728 4.276720
    endloop
  endfacet
  facet normal 0.000000 0.485302 0.874346
    outer loop
      vertex 2.700000 4.550281 4.554561
      vertex 2.700000 4.859877 4.382721
      vertex 0.000000 4.859877 4.382721
    endloop
  endfacet
  facet normal 0.000000 0.485302 0.874346
    outer loop
      vertex 0.000000 4.550281 4.554561
      vertex 2.700000 4.550281 4.554561
      vertex 0.000000 4.859877 4.382721
    endloop
  endfacet
  facet normal 0.000000 0.651373 0.758758
    outer loop
      vertex 2.700000 4.281613 4.785205
      vertex 2.700000 4.550281 4.554561
      vertex 0.000000 4.550281 4.554561
    endloop
  endfacet
  facet normal 0.000000 0.651373 0.758758
    outer loop
      vertex 0.000000 4.281613 4.785205
      vertex 2.700000 4.281613 4.785205
      vertex 0.000000 4.550281 4.554561
    endloop
  endfacet
  facet normal -0.000000 0.790776 0.612106
    outer loop
      vertex 2.700000 4.281613 4.785205
      vertex 0.000000 4.281613 4.785205
      vertex 2.700000 4.064873 5.065210
    endloop
  endfacet
  facet normal -0.000000 0.790776 0.612106
    outer loop
      vertex 2.700000 4.064873 5.065210
      vertex 0.000000 4.281613 4.785205
      vertex 0.000000 4.064873 5.065210
    endloop
  endfacet
  facet normal -0.000000 0.897804 0.440394
    outer loop
      vertex 2.700000 4.064873 5.065210
      vertex 0.000000 4.064873 5.065210
      vertex 2.700000 3.908934 5.383113
    endloop
  endfacet
  facet normal -0.000000 0.897804 0.440394
    outer loop
      vertex 2.700000 3.908934 5.383113
      vertex 0.000000 4.064873 5.065210
      vertex 0.000000 3.908934 5.383113
    endloop
  endfacet
  facet normal -0.000000 0.968077 0.250655
    outer loop
      vertex 2.700000 3.908934 5.383113
      vertex 0.000000 3.908934 5.383113
      vertex 2.700000 3.820180 5.725898
    endloop
  endfacet
  facet normal -0.000000 0.968077 0.250655
    outer loop
      vertex 2.700000 3.820180 5.725898
      vertex 0.000000 3.908934 5.383113
      vertex 0.000000 3.820180 5.725898
    endloop
  endfacet
  facet normal 1.000000 0.000000 -0.000000
    outer loop
      vertex 37.109103 2.700000 2.700000
      vertex 37.109103 0.000000 0.000000
      vertex 37.109103 11.100000 0.000000
    endloop
  endfacet
  facet normal 1.000000 0.000000 0.000000
    outer loop
      vertex 37.109103 2.700000 2.700000
      vertex 37.109103 2.700000 9.281793
      vertex 37.109103 0.000000 9.281793
    endloop
  endfacet
  facet normal 1.000000 0.000000 0.000000
    outer loop
      vertex 37.109103 11.100000 9.281793
      vertex 37.109103 8.400000 9.281793
      vertex 37.109103 11.100000 0.000000
    endloop
  endfacet
  facet normal 1.000000 0.000000 -0.000000
    outer loop
      vertex 37.109103 8.400000 9.281793
      vertex 37.109103 8.400000 2.700000
      vertex 37.109103 11.100000 0.000000
    endloop
  endfacet
  facet normal 1.000000 0.000000 -0.000000
    outer loop
      vertex 37.109103 0.000000 9.281793
      vertex 37.109103 0.000000 0.000000
      vertex 37.109103 2.700000 2.700000
    endloop
  endfacet
  facet normal 1.000000 0.000000 -0.000000
    outer loop
      vertex 37.109103 8.400000 2.700000
      vertex 37.109103 2.700000 2.700000
      vertex 37.109103 11.100000 0.000000
    endloop
  endfacet
  facet normal 0.979530 0.000000 0.201297
    outer loop
      vertex 30.989359 0.000000 5.467012
      vertex 30.989359 2.700000 5.467012
      vertex 30.918082 2.700000 5.813852
    endloop
  endfacet
  facet normal 0.979530 0.000000 0.201297
    outer loop
      vertex 30.918082 0.000000 5.813852
      vertex 30.989359 0.000000 5.467012
      vertex 30.918082 2.700000 5.813852
    endloop
  endfacet
  facet normal 1.000000 0.000000 0.000000
    outer loop
      vertex 30.918082 2.700000 5.813852
      vertex 30.918082 2.700000 6.167942
      vertex 30.918082 0.000000 6.167942
    endloop
  endfacet
  facet normal 1.000000 0.000000 0.000000
    outer loop
      vertex 30.918082 0.000000 5.813852
      vertex 30.918082 2.700000 5.813852
      vertex 30.918082 0.000000 6.167942
    endloop
  endfacet
  facet normal 0.918958 0.000000 0.394356
    outer loop
      vertex 31.128996 0.000000 5.141619
      vertex 31.128996 2.700000 5.141619
      vertex 30.989359 2.700000 5.467012
    endloop
  endfacet
  facet normal 0.918958 0.000000 0.394356
    outer loop
      vertex 30.989359 0.000000 5.467012
      vertex 31.128996 0.000000 5.141619
      vertex 30.989359 2.700000 5.467012
    endloop
  endfacet
  facet normal 0.820764 0.000000 0.571268
    outer loop
      vertex 31.331276 0.000000 4.850995
      vertex 31.331276 2.700000 4.850995
      vertex 31.128996 2.700000 5.141619
    endloop
  endfacet
  facet normal 0.820764 0.000000 0.571268
    outer loop
      vertex 31.128996 0.000000 5.141619
      vertex 31.331276 0.000000 4.850995
      vertex 31.128996 2.700000 5.141619
    endloop
  endfacet
  facet normal 0.688966 0.000000 0.724793
    outer loop
      vertex 31.587918 0.000000 4.607039
      vertex 31.587918 2.700000 4.607039
      vertex 31.331276 2.700000 4.850995
    endloop
  endfacet
  facet normal 0.688966 0.000000 0.724793
    outer loop
      vertex 31.331276 0.000000 4.850995
      vertex 31.587918 0.000000 4.607039
      vertex 31.331276 2.700000 4.850995
    endloop
  endfacet
  facet normal 0.528964 -0.000000 0.848644
    outer loop
      vertex 31.888413 0.000000 4.419739
      vertex 31.888413 2.700000 4.419739
      vertex 31.587918 2.700000 4.607039
    endloop
  endfacet
  facet normal 0.528964 0.000000 0.848644
    outer loop
      vertex 31.587918 0.000000 4.607039
      vertex 31.888413 0.000000 4.419739
      vertex 31.587918 2.700000 4.607039
    endloop
  endfacet
  facet normal 0.347305 0.000000 0.937752
    outer loop
      vertex 32.220461 0.000000 4.296762
      vertex 32.220461 2.700000 4.296762
      vertex 31.888413 2.700000 4.419739
    endloop
  endfacet
  facet normal 0.347305 -0.000000 0.937752
    outer loop
      vertex 31.888413 0.000000 4.419739
      vertex 32.220461 0.000000 4.296762
      vertex 31.888413 2.700000 4.419739
    endloop
  endfacet
  facet normal 0.151428 0.000000 0.988468
    outer loop
      vertex 32.570467 0.000000 4.243143
      vertex 32.570467 2.700000 4.243143
      vertex 32.220461 2.700000 4.296762
    endloop
  endfacet
  facet normal 0.151428 0.000000 0.988468
    outer loop
      vertex 32.220461 0.000000 4.296762
      vertex 32.570467 0.000000 4.243143
      vertex 32.220461 2.700000 4.296762
    endloop
  endfacet
  facet normal -0.050648 0.000000 0.998717
    outer loop
      vertex 32.924102 0.000000 4.261077
      vertex 32.924102 2.700000 4.261077
      vertex 32.570467 2.700000 4.243143
    endloop
  endfacet
  facet normal -0.050648 0.000000 0.998717
    outer loop
      vertex 32.570467 0.000000 4.243143
      vertex 32.924102 0.000000 4.261077
      vertex 32.570467 2.700000 4.243143
    endloop
  endfacet
  facet normal -0.250655 0.000000 0.968077
    outer loop
      vertex 33.266887 0.000000 4.349831
      vertex 33.266887 2.700000 4.349831
      vertex 32.924102 2.700000 4.261077
    endloop
  endfacet
  facet normal -0.250655 0.000000 0.968077
    outer loop
      vertex 32.924102 0.000000 4.261077
      vertex 33.266887 0.000000 4.349831
      vertex 32.924102 2.700000 4.261077
    endloop
  endfacet
  facet normal -0.440394 0.000000 0.897804
    outer loop
      vertex 33.584790 0.000000 4.505770
      vertex 33.584790 2.700000 4.505770
      vertex 33.266887 2.700000 4.349831
    endloop
  endfacet
  facet normal -0.440394 0.000000 0.897804
    outer loop
      vertex 33.266887 0.000000 4.349831
      vertex 33.584790 0.000000 4.505770
      vertex 33.266887 2.700000 4.349831
    endloop
  endfacet
  facet normal -0.612106 -0.000000 0.790776
    outer loop
      vertex 33.864795 0.000000 4.722510
      vertex 33.864795 2.700000 4.722510
      vertex 33.584790 2.700000 4.505770
    endloop
  endfacet
  facet normal -0.612106 0.000000 0.790776
    outer loop
      vertex 33.584790 0.000000 4.505770
      vertex 33.864795 0.000000 4.722510
      vertex 33.584790 2.700000 4.505770
    endloop
  endfacet
  facet normal -0.758758 -0.000000 0.651373
    outer loop
      vertex 34.095439 2.700000 4.991178
      vertex 33.864795 2.700000 4.722510
      vertex 34.095439 0.000000 4.991178
    endloop
  endfacet
  facet normal -0.758758 -0.000000 0.651373
    outer loop
      vertex 34.095439 0.000000 4.991178
      vertex 33.864795 2.700000 4.722510
      vertex 33.864795 0.000000 4.722510
    endloop
  endfacet
  facet normal -0.874346 -0.000000 0.485302
    outer loop
      vertex 34.267279 2.700000 5.300774
      vertex 34.095439 2.700000 4.991178
      vertex 34.267279 0.000000 5.300774
    endloop
  endfacet
  facet normal -0.874346 -0.000000 0.485302
    outer loop
      vertex 34.267279 0.000000 5.300774
      vertex 34.095439 2.700000 4.991178
      vertex 34.095439 0.000000 4.991178
    endloop
  endfacet
  facet normal -0.954140 0.000000 0.299362
    outer loop
      vertex 34.373280 2.700000 5.638625
      vertex 34.267279 2.700000 5.300774
      vertex 34.373280 0.000000 5.638625
    endloop
  endfacet
  facet normal -0.954140 -0.000000 0.299362
    outer loop
      vertex 34.373280 0.000000 5.638625
      vertex 34.267279 2.700000 5.300774
      vertex 34.267279 0.000000 5.300774
    endloop
  endfacet
  facet normal -0.994869 0.000000 0.101170
    outer loop
      vertex 34.409103 2.700000 5.990897
      vertex 34.373280 2.700000 5.638625
      vertex 34.409103 0.000000 5.990897
    endloop
  endfacet
  facet normal -0.994869 0.000000 0.101170
    outer loop
      vertex 34.409103 0.000000 5.990897
      vertex 34.373280 2.700000 5.638625
      vertex 34.373280 0.000000 5.638625
    endloop
  endfacet
  facet normal -0.994869 0.000000 -0.101170
    outer loop
      vertex 34.409103 2.700000 5.990897
      vertex 34.409103 0.000000 5.990897
      vertex 34.373280 2.700000 6.343169
    endloop
  endfacet
  facet normal -0.994869 0.000000 -0.101170
    outer loop
      vertex 34.373280 2.700000 6.343169
      vertex 34.409103 0.000000 5.990897
      vertex 34.373280 0.000000 6.343169
    endloop
  endfacet
  facet normal -0.954140 0.000000 -0.299362
    outer loop
      vertex 34.373280 2.700000 6.343169
      vertex 34.373280 0.000000 6.343169
      vertex 34.267279 2.700000 6.681020
    endloop
  endfacet
  facet normal -0.954140 0.000000 -0.299362
    outer loop
      vertex 34.267279 2.700000 6.681020
      vertex 34.373280 0.000000 6.343169
      vertex 34.267279 0.000000 6.681020
    endloop
  endfacet
  facet normal -0.874346 0.000000 -0.485302
    outer loop
      vertex 34.267279 2.700000 6.681020
      vertex 34.267279 0.000000 6.681020
      vertex 34.095439 2.700000 6.990616
    endloop
  endfacet
  facet normal -0.874346 0.000000 -0.485302
    outer loop
      vertex 34.095439 2.700000 6.990616
      vertex 34.267279 0.000000 6.681020
      vertex 34.095439 0.000000 6.990616
    endloop
  endfacet
  facet normal -0.758758 0.000000 -0.651373
    outer loop
      vertex 34.095439 2.700000 6.990616
      vertex 34.095439 0.000000 6.990616
      vertex 33.864795 2.700000 7.259284
    endloop
  endfacet
  facet normal -0.758758 0.000000 -0.651373
    outer loop
      vertex 33.864795 2.700000 7.259284
      vertex 34.095439 0.000000 6.990616
      vertex 33.864795 0.000000 7.259284
    endloop
  endfacet
  facet normal -0.612106 0.000000 -0.790776
    outer loop
      vertex 33.864795 2.700000 7.259284
      vertex 33.864795 0.000000 7.259284
      vertex 33.584790 2.700000 7.476024
    endloop
  endfacet
  facet normal -0.612106 0.000000 -0.790776
    outer loop
      vertex 33.584790 2.700000 7.476024
      vertex 33.864795 0.000000 7.259284
      vertex 33.584790 0.000000 7.476024
    endloop
  endfacet
  facet normal -0.440394 0.000000 -0.897804
    outer loop
      vertex 33.584790 2.700000 7.476024
      vertex 33.584790 0.000000 7.476024
      vertex 33.266887 2.700000 7.631963
    endloop
  endfacet
  facet normal -0.440394 0.000000 -0.897804
    outer loop
      vertex 33.266887 2.700000 7.631963
      vertex 33.584790 0.000000 7.476024
      vertex 33.266887 0.000000 7.631963
    endloop
  endfacet
  facet normal -0.250655 0.000000 -0.968077
    outer loop
      vertex 33.266887 2.700000 7.631963
      vertex 33.266887 0.000000 7.631963
      vertex 32.924102 2.700000 7.720717
    endloop
  endfacet
  facet normal -0.250655 0.000000 -0.968077
    outer loop
      vertex 32.924102 2.700000 7.720717
      vertex 33.266887 0.000000 7.631963
      vertex 32.924102 0.000000 7.720717
    endloop
  endfacet
  facet normal -0.050648 0.000000 -0.998717
    outer loop
      vertex 32.924102 2.700000 7.720717
      vertex 32.924102 0.000000 7.720717
      vertex 32.570467 2.700000 7.738651
    endloop
  endfacet
  facet normal -0.050648 0.000000 -0.998717
    outer loop
      vertex 32.570467 2.700000 7.738651
      vertex 32.924102 0.000000 7.720717
      vertex 32.570467 0.000000 7.738651
    endloop
  endfacet
  facet normal 0.151428 0.000000 -0.988468
    outer loop
      vertex 32.570467 2.700000 7.738651
      vertex 32.570467 0.000000 7.738651
      vertex 32.220461 2.700000 7.685032
    endloop
  endfacet
  facet normal 0.151428 0.000000 -0.988468
    outer loop
      vertex 32.220461 2.700000 7.685032
      vertex 32.570467 0.000000 7.738651
      vertex 32.220461 0.000000 7.685032
    endloop
  endfacet
  facet normal 0.347305 0.000000 -0.937752
    outer loop
      vertex 32.220461 2.700000 7.685032
      vertex 32.220461 0.000000 7.685032
      vertex 31.888413 2.700000 7.562055
    endloop
  endfacet
  facet normal 0.347305 0.000000 -0.937752
    outer loop
      vertex 31.888413 2.700000 7.562055
      vertex 32.220461 0.000000 7.685032
      vertex 31.888413 0.000000 7.562055
    endloop
  endfacet
  facet normal 0.528964 0.000000 -0.848644
    outer loop
      vertex 31.888413 2.700000 7.562055
      vertex 31.888413 0.000000 7.562055
      vertex 31.587918 2.700000 7.374755
    endloop
  endfacet
  facet normal 0.528964 0.000000 -0.848644
    outer loop
      vertex 31.587918 2.700000 7.374755
      vertex 31.888413 0.000000 7.562055
      vertex 31.587918 0.000000 7.374755
    endloop
  endfacet
  facet normal 0.688966 0.000000 -0.724793
    outer loop
      vertex 31.587918 2.700000 7.374755
      vertex 31.587918 0.000000 7.374755
      vertex 31.331276 2.700000 7.130799
    endloop
  endfacet
  facet normal 0.688966 0.000000 -0.724793
    outer loop
      vertex 31.331276 2.700000 7.130799
      vertex 31.587918 0.000000 7.374755
      vertex 31.331276 0.000000 7.130799
    endloop
  endfacet
  facet normal 0.820764 0.000000 -0.571268
    outer loop
      vertex 31.128996 2.700000 6.840175
      vertex 31.331276 2.700000 7.130799
      vertex 31.331276 0.000000 7.130799
    endloop
  endfacet
  facet normal 0.820764 0.000000 -0.571268
    outer loop
      vertex 31.128996 0.000000 6.840175
      vertex 31.128996 2.700000 6.840175
      vertex 31.331276 0.000000 7.130799
    endloop
  endfacet
  facet normal 0.918958 0.000000 -0.394356
    outer loop
      vertex 30.989359 2.700000 6.514782
      vertex 31.128996 2.700000 6.840175
      vertex 31.128996 0.000000 6.840175
    endloop
  endfacet
  facet normal 0.918958 0.000000 -0.394356
    outer loop
      vertex 30.989359 0.000000 6.514782
      vertex 30.989359 2.700000 6.514782
      vertex 31.128996 0.000000 6.840175
    endloop
  endfacet
  facet normal 0.979530 0.000000 -0.201297
    outer loop
      vertex 30.918082 2.700000 6.167942
      vertex 30.989359 2.700000 6.514782
      vertex 30.989359 0.000000 6.514782
    endloop
  endfacet
  facet normal 0.979530 0.000000 -0.201297
    outer loop
      vertex 30.918082 0.000000 6.167942
      vertex 30.918082 2.700000 6.167942
      vertex 30.989359 0.000000 6.514782
    endloop
  endfacet
  facet normal 1.000000 0.000000 0.000000
    outer loop
      vertex 30.918082 11.100000 5.813852
      vertex 30.918082 11.100000 6.167942
      vertex 30.918082 8.400000 6.167942
    endloop
  endfacet
  facet normal 1.000000 0.000000 0.000000
    outer loop
      vertex 30.918082 8.400000 5.813852
      vertex 30.918082 11.100000 5.813852
      vertex 30.918082 8.400000 6.167942
    endloop
  endfacet
  facet normal 0.979530 0.000000 -0.201297
    outer loop
      vertex 30.918082 11.100000 6.167942
      vertex 30.989359 11.100000 6.514782
      vertex 30.989359 8.400000 6.514782
    endloop
  endfacet
  facet normal 0.979530 0.000000 -0.201297
    outer loop
      vertex 30.918082 8.400000 6.167942
      vertex 30.918082 11.100000 6.167942
      vertex 30.989359 8.400000 6.514782
    endloop
  endfacet
  facet normal 0.918958 0.000000 -0.394356
    outer loop
      vertex 30.989359 11.100000 6.514782
      vertex 31.128996 11.100000 6.840175
      vertex 31.128996 8.400000 6.840175
    endloop
  endfacet
  facet normal 0.918958 0.000000 -0.394356
    outer loop
      vertex 30.989359 8.400000 6.514782
      vertex 30.989359 11.100000 6.514782
      vertex 31.128996 8.400000 6.840175
    endloop
  endfacet
  facet normal 0.820764 0.000000 -0.571268
    outer loop
      vertex 31.128996 11.100000 6.840175
      vertex 31.331276 11.100000 7.130799
      vertex 31.331276 8.400000 7.130799
    endloop
  endfacet
  facet normal 0.820764 0.000000 -0.571268
    outer loop
      vertex 31.128996 8.400000 6.840175
      vertex 31.128996 11.100000 6.840175
      vertex 31.331276 8.400000 7.130799
    endloop
  endfacet
  facet normal 0.688966 0.000000 -0.724793
    outer loop
      vertex 31.587918 11.100000 7.374755
      vertex 31.587918 8.400000 7.374755
      vertex 31.331276 11.100000 7.130799
    endloop
  endfacet
  facet normal 0.688966 0.000000 -0.724793
    outer loop
      vertex 31.331276 11.100000 7.130799
      vertex 31.587918 8.400000 7.374755
      vertex 31.331276 8.400000 7.130799
    endloop
  endfacet
  facet normal 0.528964 0.000000 -0.848644
    outer loop
      vertex 31.888413 11.100000 7.562055
      vertex 31.888413 8.400000 7.562055
      vertex 31.587918 11.100000 7.374755
    endloop
  endfacet
  facet normal 0.528964 0.000000 -0.848644
    outer loop
      vertex 31.587918 11.100000 7.374755
      vertex 31.888413 8.400000 7.562055
      vertex 31.587918 8.400000 7.374755
    endloop
  endfacet
  facet normal 0.347305 0.000000 -0.937752
    outer loop
      vertex 32.220461 11.100000 7.685032
      vertex 32.220461 8.400000 7.685032
      vertex 31.888413 11.100000 7.562055
    endloop
  endfacet
  facet normal 0.347305 0.000000 -0.937752
    outer loop
      vertex 31.888413 11.100000 7.562055
      vertex 32.220461 8.400000 7.685032
      vertex 31.888413 8.400000 7.562055
    endloop
  endfacet
  facet normal 0.151428 0.000000 -0.988468
    outer loop
      vertex 32.570467 11.100000 7.738651
      vertex 32.570467 8.400000 7.738651
      vertex 32.220461 11.100000 7.685032
    endloop
  endfacet
  facet normal 0.151428 0.000000 -0.988468
    outer loop
      vertex 32.220461 11.100000 7.685032
      vertex 32.570467 8.400000 7.738651
      vertex 32.220461 8.400000 7.685032
    endloop
  endfacet
  facet normal -0.050648 0.000000 -0.998717
    outer loop
      vertex 32.924102 11.100000 7.720717
      vertex 32.924102 8.400000 7.720717
      vertex 32.570467 11.100000 7.738651
    endloop
  endfacet
  facet normal -0.050648 0.000000 -0.998717
    outer loop
      vertex 32.570467 11.100000 7.738651
      vertex 32.924102 8.400000 7.720717
      vertex 32.570467 8.400000 7.738651
    endloop
  endfacet
  facet normal -0.250655 0.000000 -0.968077
    outer loop
      vertex 33.266887 11.100000 7.631963
      vertex 33.266887 8.400000 7.631963
      vertex 32.924102 11.100000 7.720717
    endloop
  endfacet
  facet normal -0.250655 0.000000 -0.968077
    outer loop
      vertex 32.924102 11.100000 7.720717
      vertex 33.266887 8.400000 7.631963
      vertex 32.924102 8.400000 7.720717
    endloop
  endfacet
  facet normal -0.440394 0.000000 -0.897804
    outer loop
      vertex 33.584790 11.100000 7.476024
      vertex 33.584790 8.400000 7.476024
      vertex 33.266887 11.100000 7.631963
    endloop
  endfacet
  facet normal -0.440394 0.000000 -0.897804
    outer loop
      vertex 33.266887 11.100000 7.631963
      vertex 33.584790 8.400000 7.476024
      vertex 33.266887 8.400000 7.631963
    endloop
  endfacet
  facet normal -0.612106 0.000000 -0.790776
    outer loop
      vertex 33.864795 11.100000 7.259284
      vertex 33.864795 8.400000 7.259284
      vertex 33.584790 11.100000 7.476024
    endloop
  endfacet
  facet normal -0.612106 0.000000 -0.790776
    outer loop
      vertex 33.584790 11.100000 7.476024
      vertex 33.864795 8.400000 7.259284
      vertex 33.584790 8.400000 7.476024
    endloop
  endfacet
  facet normal -0.758758 0.000000 -0.651373
    outer loop
      vertex 34.095439 11.100000 6.990616
      vertex 34.095439 8.400000 6.990616
      vertex 33.864795 11.100000 7.259284
    endloop
  endfacet
  facet normal -0.758758 0.000000 -0.651373
    outer loop
      vertex 33.864795 11.100000 7.259284
      vertex 34.095439 8.400000 6.990616
      vertex 33.864795 8.400000 7.259284
    endloop
  endfacet
  facet normal -0.874346 0.000000 -0.485302
    outer loop
      vertex 34.267279 11.100000 6.681020
      vertex 34.267279 8.400000 6.681020
      vertex 34.095439 11.100000 6.990616
    endloop
  endfacet
  facet normal -0.874346 0.000000 -0.485302
    outer loop
      vertex 34.095439 11.100000 6.990616
      vertex 34.267279 8.400000 6.681020
      vertex 34.095439 8.400000 6.990616
    endloop
  endfacet
  facet normal -0.954140 0.000000 -0.299362
    outer loop
      vertex 34.373280 11.100000 6.343169
      vertex 34.373280 8.400000 6.343169
      vertex 34.267279 11.100000 6.681020
    endloop
  endfacet
  facet normal -0.954140 0.000000 -0.299362
    outer loop
      vertex 34.267279 11.100000 6.681020
      vertex 34.373280 8.400000 6.343169
      vertex 34.267279 8.400000 6.681020
    endloop
  endfacet
  facet normal -0.994869 0.000000 -0.101170
    outer loop
      vertex 34.409103 11.100000 5.990897
      vertex 34.409103 8.400000 5.990897
      vertex 34.373280 11.100000 6.343169
    endloop
  endfacet
  facet normal -0.994869 0.000000 -0.101170
    outer loop
      vertex 34.373280 11.100000 6.343169
      vertex 34.409103 8.400000 5.990897
      vertex 34.373280 8.400000 6.343169
    endloop
  endfacet
  facet normal -0.994869 0.000000 0.101170
    outer loop
      vertex 34.409103 11.100000 5.990897
      vertex 34.373280 11.100000 5.638625
      vertex 34.409103 8.400000 5.990897
    endloop
  endfacet
  facet normal -0.994869 -0.000000 0.101170
    outer loop
      vertex 34.409103 8.400000 5.990897
      vertex 34.373280 11.100000 5.638625
      vertex 34.373280 8.400000 5.638625
    endloop
  endfacet
  facet normal -0.954140 -0.000000 0.299362
    outer loop
      vertex 34.373280 11.100000 5.638625
      vertex 34.267279 11.100000 5.300774
      vertex 34.373280 8.400000 5.638625
    endloop
  endfacet
  facet normal -0.954140 0.000000 0.299362
    outer loop
      vertex 34.373280 8.400000 5.638625
      vertex 34.267279 11.100000 5.300774
      vertex 34.267279 8.400000 5.300774
    endloop
  endfacet
  facet normal -0.874346 0.000000 0.485302
    outer loop
      vertex 34.267279 11.100000 5.300774
      vertex 34.095439 11.100000 4.991178
      vertex 34.267279 8.400000 5.300774
    endloop
  endfacet
  facet normal -0.874346 0.000000 0.485302
    outer loop
      vertex 34.267279 8.400000 5.300774
      vertex 34.095439 11.100000 4.991178
      vertex 34.095439 8.400000 4.991178
    endloop
  endfacet
  facet normal -0.758758 0.000000 0.651373
    outer loop
      vertex 34.095439 11.100000 4.991178
      vertex 33.864795 11.100000 4.722510
      vertex 34.095439 8.400000 4.991178
    endloop
  endfacet
  facet normal -0.758758 0.000000 0.651373
    outer loop
      vertex 34.095439 8.400000 4.991178
      vertex 33.864795 11.100000 4.722510
      vertex 33.864795 8.400000 4.722510
    endloop
  endfacet
  facet normal -0.612106 0.000000 0.790776
    outer loop
      vertex 33.864795 8.400000 4.722510
      vertex 33.864795 11.100000 4.722510
      vertex 33.584790 11.100000 4.505770
    endloop
  endfacet
  facet normal -0.612106 0.000000 0.790776
    outer loop
      vertex 33.584790 8.400000 4.505770
      vertex 33.864795 8.400000 4.722510
      vertex 33.584790 11.100000 4.505770
    endloop
  endfacet
  facet normal -0.440394 0.000000 0.897804
    outer loop
      vertex 33.584790 8.400000 4.505770
      vertex 33.584790 11.100000 4.505770
      vertex 33.266887 11.100000 4.349831
    endloop
  endfacet
  facet normal -0.440394 0.000000 0.897804
    outer loop
      vertex 33.266887 8.400000 4.349831
      vertex 33.584790 8.400000 4.505770
      vertex 33.266887 11.100000 4.349831
    endloop
  endfacet
  facet normal -0.250655 0.000000 0.968077
    outer loop
      vertex 33.266887 8.400000 4.349831
      vertex 33.266887 11.100000 4.349831
      vertex 32.924102 11.100000 4.261077
    endloop
  endfacet
  facet normal -0.250655 -0.000000 0.968077
    outer loop
      vertex 32.924102 8.400000 4.261077
      vertex 33.266887 8.400000 4.349831
      vertex 32.924102 11.100000 4.261077
    endloop
  endfacet
  facet normal -0.050648 -0.000000 0.998717
    outer loop
      vertex 32.924102 8.400000 4.261077
      vertex 32.924102 11.100000 4.261077
      vertex 32.570467 11.100000 4.243143
    endloop
  endfacet
  facet normal -0.050648 0.000000 0.998717
    outer loop
      vertex 32.570467 8.400000 4.243143
      vertex 32.924102 8.400000 4.261077
      vertex 32.570467 11.100000 4.243143
    endloop
  endfacet
  facet normal 0.151428 0.000000 0.988468
    outer loop
      vertex 32.570467 8.400000 4.243143
      vertex 32.570467 11.100000 4.243143
      vertex 32.220461 11.100000 4.296762
    endloop
  endfacet
  facet normal 0.151428 -0.000000 0.988468
    outer loop
      vertex 32.220461 8.400000 4.296762
      vertex 32.570467 8.400000 4.243143
      vertex 32.220461 11.100000 4.296762
    endloop
  endfacet
  facet normal 0.347305 -0.000000 0.937752
    outer loop
      vertex 32.220461 8.400000 4.296762
      vertex 32.220461 11.100000 4.296762
      vertex 31.888413 11.100000 4.419739
    endloop
  endfacet
  facet normal 0.347305 0.000000 0.937752
    outer loop
      vertex 31.888413 8.400000 4.419739
      vertex 32.220461 8.400000 4.296762
      vertex 31.888413 11.100000 4.419739
    endloop
  endfacet
  facet normal 0.528964 0.000000 0.848644
    outer loop
      vertex 31.888413 8.400000 4.419739
      vertex 31.888413 11.100000 4.419739
      vertex 31.587918 11.100000 4.607039
    endloop
  endfacet
  facet normal 0.528964 0.000000 0.848644
    outer loop
      vertex 31.587918 8.400000 4.607039
      vertex 31.888413 8.400000 4.419739
      vertex 31.587918 11.100000 4.607039
    endloop
  endfacet
  facet normal 0.688966 0.000000 0.724793
    outer loop
      vertex 31.587918 8.400000 4.607039
      vertex 31.587918 11.100000 4.607039
      vertex 31.331276 11.100000 4.850995
    endloop
  endfacet
  facet normal 0.688966 -0.000000 0.724793
    outer loop
      vertex 31.331276 8.400000 4.850995
      vertex 31.587918 8.400000 4.607039
      vertex 31.331276 11.100000 4.850995
    endloop
  endfacet
  facet normal 0.820764 -0.000000 0.571268
    outer loop
      vertex 31.331276 8.400000 4.850995
      vertex 31.331276 11.100000 4.850995
      vertex 31.128996 11.100000 5.141619
    endloop
  endfacet
  facet normal 0.820764 0.000000 0.571268
    outer loop
      vertex 31.128996 8.400000 5.141619
      vertex 31.331276 8.400000 4.850995
      vertex 31.128996 11.100000 5.141619
    endloop
  endfacet
  facet normal 0.918958 0.000000 0.394356
    outer loop
      vertex 31.128996 8.400000 5.141619
      vertex 31.128996 11.100000 5.141619
      vertex 30.989359 11.100000 5.467012
    endloop
  endfacet
  facet normal 0.918958 0.000000 0.394356
    outer loop
      vertex 30.989359 8.400000 5.467012
      vertex 31.128996 8.400000 5.141619
      vertex 30.989359 11.100000 5.467012
    endloop
  endfacet
  facet normal 0.979530 0.000000 0.201297
    outer loop
      vertex 30.989359 8.400000 5.467012
      vertex 30.989359 11.100000 5.467012
      vertex 30.918082 11.100000 5.813852
    endloop
  endfacet
  facet normal 0.979530 0.000000 0.201297
    outer loop
      vertex 30.918082 8.400000 5.813852
      vertex 30.989359 8.400000 5.467012
      vertex 30.918082 11.100000 5.813852
    endloop
  endfacet
  facet normal 0.000000 -1.000000 -0.000000
    outer loop
      vertex 32.220461 8.400000 7.685032
      vertex 37.109103 8.400000 9.281793
      vertex 2.700000 8.400000 9.281793
    endloop
  endfacet
  facet normal -0.000000 -1.000000 -0.000000
    outer loop
      vertex 2.700000 8.400000 2.700000
      vertex 37.109103 8.400000 2.700000
      vertex 2.700000 8.400000 9.281793
    endloop
  endfacet
  facet normal 0.000000 -1.000000 0.000000
    outer loop
      vertex 30.918082 8.400000 5.813852
      vertex 30.918082 8.400000 6.167942
      vertex 2.700000 8.400000 9.281793
    endloop
  endfacet
  facet normal 0.000000 -1.000000 -0.000000
    outer loop
      vertex 30.918082 8.400000 6.167942
      vertex 30.989359 8.400000 6.514782
      vertex 2.700000 8.400000 9.281793
    endloop
  endfacet
  facet normal 0.000000 -1.000000 0.000000
    outer loop
      vertex 34.095439 8.400000 6.990616
      vertex 34.267279 8.400000 6.681020
      vertex 37.109103 8.400000 2.700000
    endloop
  endfacet
  facet normal 0.000000 -1.000000 -0.000000
    outer loop
      vertex 30.989359 8.400000 6.514782
      vertex 31.128996 8.400000 6.840175
      vertex 2.700000 8.400000 9.281793
    endloop
  endfacet
  facet normal 0.000000 -1.000000 -0.000000
    outer loop
      vertex 31.128996 8.400000 6.840175
      vertex 31.331276 8.400000 7.130799
      vertex 2.700000 8.400000 9.281793
    endloop
  endfacet
  facet normal 0.000000 -1.000000 -0.000000
    outer loop
      vertex 31.331276 8.400000 7.130799
      vertex 31.587918 8.400000 7.374755
      vertex 2.700000 8.400000 9.281793
    endloop
  endfacet
  facet normal -0.000000 -1.000000 0.000000
    outer loop
      vertex 32.924102 8.400000 7.720717
      vertex 33.266887 8.400000 7.631963
      vertex 37.109103 8.400000 9.281793
    endloop
  endfacet
  facet normal 0.000000 -1.000000 -0.000000
    outer loop
      vertex 31.587918 8.400000 7.374755
      vertex 31.888413 8.400000 7.562055
      vertex 2.700000 8.400000 9.281793
    endloop
  endfacet
  facet normal 0.000000 -1.000000 -0.000000
    outer loop
      vertex 31.888413 8.400000 7.562055
      vertex 32.220461 8.400000 7.685032
      vertex 2.700000 8.400000 9.281793
    endloop
  endfacet
  facet normal -0.000000 -1.000000 0.000000
    outer loop
      vertex 33.266887 8.400000 7.631963
      vertex 33.584790 8.400000 7.476024
      vertex 37.109103 8.400000 9.281793
    endloop
  endfacet
  facet normal 0.000000 -1.000000 -0.000000
    outer loop
      vertex 33.864795 8.400000 7.259284
      vertex 37.109103 8.400000 9.281793
      vertex 33.584790 8.400000 7.476024
    endloop
  endfacet
  facet normal 0.000000 -1.000000 -0.000000
    outer loop
      vertex 34.095439 8.400000 6.990616
      vertex 37.109103 8.400000 9.281793
      vertex 33.864795 8.400000 7.259284
    endloop
  endfacet
  facet normal 0.000000 -1.000000 0.000000
    outer loop
      vertex 34.267279 8.400000 6.681020
      vertex 34.373280 8.400000 6.343169
      vertex 37.109103 8.400000 2.700000
    endloop
  endfacet
  facet normal 0.000000 -1.000000 0.000000
    outer loop
      vertex 37.109103 8.400000 2.700000
      vertex 37.109103 8.400000 9.281793
      vertex 34.095439 8.400000 6.990616
    endloop
  endfacet
  facet normal 0.000000 -1.000000 0.000000
    outer loop
      vertex 33.864795 8.400000 4.722510
      vertex 33.584790 8.400000 4.505770
      vertex 37.109103 8.400000 2.700000
    endloop
  endfacet
  facet normal 0.000000 -1.000000 0.000000
    outer loop
      vertex 37.109103 8.400000 2.700000
      vertex 34.373280 8.400000 6.343169
      vertex 34.409103 8.400000 5.990897
    endloop
  endfacet
  facet normal 0.000000 -1.000000 0.000000
    outer loop
      vertex 37.109103 8.400000 2.700000
      vertex 34.409103 8.400000 5.990897
      vertex 34.373280 8.400000 5.638625
    endloop
  endfacet
  facet normal 0.000000 -1.000000 0.000000
    outer loop
      vertex 37.109103 8.400000 2.700000
      vertex 34.373280 8.400000 5.638625
      vertex 34.267279 8.400000 5.300774
    endloop
  endfacet
  facet normal 0.000000 -1.000000 0.000000
    outer loop
      vertex 37.109103 8.400000 2.700000
      vertex 34.267279 8.400000 5.300774
      vertex 34.095439 8.400000 4.991178
    endloop
  endfacet
  facet normal 0.000000 -1.000000 0.000000
    outer loop
      vertex 32.220461 8.400000 4.296762
      vertex 31.888413 8.400000 4.419739
      vertex 2.700000 8.400000 9.281793
    endloop
  endfacet
  facet normal 0.000000 -1.000000 0.000000
    outer loop
      vertex 37.109103 8.400000 2.700000
      vertex 34.095439 8.400000 4.991178
      vertex 33.864795 8.400000 4.722510
    endloop
  endfacet
  facet normal 0.000000 -1.000000 0.000000
    outer loop
      vertex 31.331276 8.400000 4.850995
      vertex 31.128996 8.400000 5.141619
      vertex 2.700000 8.400000 9.281793
    endloop
  endfacet
  facet normal 0.000000 -1.000000 0.000000
    outer loop
      vertex 37.109103 8.400000 2.700000
      vertex 33.584790 8.400000 4.505770
      vertex 33.266887 8.400000 4.349831
    endloop
  endfacet
  facet normal 0.000000 -1.000000 0.000000
    outer loop
      vertex 31.587918 8.400000 4.607039
      vertex 31.331276 8.400000 4.850995
      vertex 2.700000 8.400000 9.281793
    endloop
  endfacet
  facet normal 0.000000 -1.000000 0.000000
    outer loop
      vertex 37.109103 8.400000 2.700000
      vertex 33.266887 8.400000 4.349831
      vertex 32.924102 8.400000 4.261077
    endloop
  endfacet
  facet normal 0.000000 -1.000000 0.000000
    outer loop
      vertex 31.888413 8.400000 4.419739
      vertex 31.587918 8.400000 4.607039
      vertex 2.700000 8.400000 9.281793
    endloop
  endfacet
  facet normal 0.000000 -1.000000 0.000000
    outer loop
      vertex 37.109103 8.400000 2.700000
      vertex 32.924102 8.400000 4.261077
      vertex 32.570467 8.400000 4.243143
    endloop
  endfacet
  facet normal 0.000000 -1.000000 0.000000
    outer loop
      vertex 37.109103 8.400000 2.700000
      vertex 32.220461 8.400000 4.296762
      vertex 2.700000 8.400000 9.281793
    endloop
  endfacet
  facet normal 0.000000 -1.000000 0.000000
    outer loop
      vertex 37.109103 8.400000 2.700000
      vertex 32.570467 8.400000 4.243143
      vertex 32.220461 8.400000 4.296762
    endloop
  endfacet
  facet normal 0.000000 -1.000000 0.000000
    outer loop
      vertex 31.128996 8.400000 5.141619
      vertex 30.989359 8.400000 5.467012
      vertex 2.700000 8.400000 9.281793
    endloop
  endfacet
  facet normal 0.000000 -1.000000 0.000000
    outer loop
      vertex 30.989359 8.400000 5.467012
      vertex 30.918082 8.400000 5.813852
      vertex 2.700000 8.400000 9.281793
    endloop
  endfacet
  facet normal 0.000000 -1.000000 0.000000
    outer loop
      vertex 32.220461 8.400000 7.685032
      vertex 32.570467 8.400000 7.738651
      vertex 37.109103 8.400000 9.281793
    endloop
  endfacet
  facet normal -0.000000 -1.000000 0.000000
    outer loop
      vertex 32.570467 8.400000 7.738651
      vertex 32.924102 8.400000 7.720717
      vertex 37.109103 8.400000 9.281793
    endloop
  endfacet
  facet normal 1.000000 0.000000 0.000000
    outer loop
      vertex 2.700000 4.700722 7.521004
      vertex 2.700000 8.400000 9.281793
      vertex 2.700000 2.700000 9.281793
    endloop
  endfacet
  facet normal 1.000000 0.000000 0.000000
    outer loop
      vertex 2.700000 5.026115 7.660641
      vertex 2.700000 5.372955 7.731918
      vertex 2.700000 8.400000 9.281793
    endloop
  endfacet
  facet normal 1.000000 0.000000 0.000000
    outer loop
      vertex 2.700000 2.700000 2.700000
      vertex 2.700000 3.802246 6.079533
      vertex 2.700000 2.700000 9.281793
    endloop
  endfacet
  facet normal 1.000000 0.000000 0.000000
    outer loop
      vertex 2.700000 3.802246 6.079533
      vertex 2.700000 3.855865 6.429539
      vertex 2.700000 2.700000 9.281793
    endloop
  endfacet
  facet normal 1.000000 0.000000 0.000000
    outer loop
      vertex 2.700000 3.855865 6.429539
      vertex 2.700000 3.978842 6.761587
      vertex 2.700000 2.700000 9.281793
    endloop
  endfacet
  facet normal 1.000000 0.000000 -0.000000
    outer loop
      vertex 2.700000 6.240123 4.382721
      vertex 2.700000 5.902272 4.276720
      vertex 2.700000 8.400000 2.700000
    endloop
  endfacet
  facet normal 1.000000 0.000000 0.000000
    outer loop
      vertex 2.700000 3.978842 6.761587
      vertex 2.700000 4.166142 7.062082
      vertex 2.700000 2.700000 9.281793
    endloop
  endfacet
  facet normal 1.000000 0.000000 0.000000
    outer loop
      vertex 2.700000 4.410098 7.318724
      vertex 2.700000 4.700722 7.521004
      vertex 2.700000 2.700000 9.281793
    endloop
  endfacet
  facet normal 1.000000 -0.000000 0.000000
    outer loop
      vertex 2.700000 5.026115 7.660641
      vertex 2.700000 8.400000 9.281793
      vertex 2.700000 4.700722 7.521004
    endloop
  endfacet
  facet normal 1.000000 0.000000 0.000000
    outer loop
      vertex 2.700000 7.244135 6.429539
      vertex 2.700000 7.297754 6.079533
      vertex 2.700000 8.400000 2.700000
    endloop
  endfacet
  facet normal 1.000000 -0.000000 0.000000
    outer loop
      vertex 2.700000 5.727045 7.731918
      vertex 2.700000 8.400000 9.281793
      vertex 2.700000 5.372955 7.731918
    endloop
  endfacet
  facet normal 1.000000 0.000000 0.000000
    outer loop
      vertex 2.700000 6.073885 7.660641
      vertex 2.700000 8.400000 9.281793
      vertex 2.700000 5.727045 7.731918
    endloop
  endfacet
  facet normal 1.000000 0.000000 -0.000000
    outer loop
      vertex 2.700000 7.035127 5.065210
      vertex 2.700000 6.818387 4.785205
      vertex 2.700000 8.400000 2.700000
    endloop
  endfacet
  facet normal 1.000000 0.000000 0.000000
    outer loop
      vertex 2.700000 6.399278 7.521004
      vertex 2.700000 8.400000 9.281793
      vertex 2.700000 6.073885 7.660641
    endloop
  endfacet
  facet normal 1.000000 0.000000 0.000000
    outer loop
      vertex 2.700000 6.689902 7.318724
      vertex 2.700000 8.400000 9.281793
      vertex 2.700000 6.399278 7.521004
    endloop
  endfacet
  facet normal 1.000000 0.000000 0.000000
    outer loop
      vertex 2.700000 6.933858 7.062082
      vertex 2.700000 8.400000 9.281793
      vertex 2.700000 6.689902 7.318724
    endloop
  endfacet
  facet normal 1.000000 0.000000 0.000000
    outer loop
      vertex 2.700000 7.121158 6.761587
      vertex 2.700000 8.400000 9.281793
      vertex 2.700000 6.933858 7.062082
    endloop
  endfacet
  facet normal 1.000000 0.000000 0.000000
    outer loop
      vertex 2.700000 7.244135 6.429539
      vertex 2.700000 8.400000 9.281793
      vertex 2.700000 7.121158 6.761587
    endloop
  endfacet
  facet normal 1.000000 0.000000 -0.000000
    outer loop
      vertex 2.700000 7.297754 6.079533
      vertex 2.700000 7.279820 5.725898
      vertex 2.700000 8.400000 2.700000
    endloop
  endfacet
  facet normal 1.000000 0.000000 0.000000
    outer loop
      vertex 2.700000 8.400000 2.700000
      vertex 2.700000 8.400000 9.281793
      vertex 2.700000 7.244135 6.429539
    endloop
  endfacet
  facet normal 1.000000 0.000000 -0.000000
    outer loop
      vertex 2.700000 7.191066 5.383113
      vertex 2.700000 7.035127 5.065210
      vertex 2.700000 8.400000 2.700000
    endloop
  endfacet
  facet normal 1.000000 0.000000 -0.000000
    outer loop
      vertex 2.700000 6.818387 4.785205
      vertex 2.700000 6.549719 4.554561
      vertex 2.700000 8.400000 2.700000
    endloop
  endfacet
  facet normal 1.000000 0.000000 -0.000000
    outer loop
      vertex 2.700000 6.549719 4.554561
      vertex 2.700000 6.240123 4.382721
      vertex 2.700000 8.400000 2.700000
    endloop
  endfacet
  facet normal 1.000000 0.000000 0.000000
    outer loop
      vertex 2.700000 2.700000 2.700000
      vertex 2.700000 8.400000 2.700000
      vertex 2.700000 5.902272 4.276720
    endloop
  endfacet
  facet normal 1.000000 0.000000 0.000000
    outer loop
      vertex 2.700000 2.700000 2.700000
      vertex 2.700000 5.902272 4.276720
      vertex 2.700000 5.550000 4.240897
    endloop
  endfacet
  facet normal 1.000000 0.000000 0.000000
    outer loop
      vertex 2.700000 2.700000 2.700000
      vertex 2.700000 5.550000 4.240897
      vertex 2.700000 5.197728 4.276720
    endloop
  endfacet
  facet normal 1.000000 0.000000 0.000000
    outer loop
      vertex 2.700000 2.700000 2.700000
      vertex 2.700000 5.197728 4.276720
      vertex 2.700000 4.859877 4.382721
    endloop
  endfacet
  facet normal 1.000000 0.000000 0.000000
    outer loop
      vertex 2.700000 2.700000 2.700000
      vertex 2.700000 4.859877 4.382721
      vertex 2.700000 4.550281 4.554561
    endloop
  endfacet
  facet normal 1.000000 0.000000 0.000000
    outer loop
      vertex 2.700000 2.700000 2.700000
      vertex 2.700000 4.550281 4.554561
      vertex 2.700000 4.281613 4.785205
    endloop
  endfacet
  facet normal 1.000000 0.000000 0.000000
    outer loop
      vertex 2.700000 2.700000 2.700000
      vertex 2.700000 4.281613 4.785205
      vertex 2.700000 4.064873 5.065210
    endloop
  endfacet
  facet normal 1.000000 0.000000 0.000000
    outer loop
      vertex 2.700000 2.700000 2.700000
      vertex 2.700000 4.064873 5.065210
      vertex 2.700000 3.908934 5.383113
    endloop
  endfacet
  facet normal 1.000000 0.000000 0.000000
    outer loop
      vertex 2.700000 2.700000 2.700000
      vertex 2.700000 3.820180 5.725898
      vertex 2.700000 3.802246 6.079533
    endloop
  endfacet
  facet normal 1.000000 0.000000 0.000000
    outer loop
      vertex 2.700000 2.700000 2.700000
      vertex 2.700000 3.908934 5.383113
      vertex 2.700000 3.820180 5.725898
    endloop
  endfacet
  facet normal 1.000000 0.000000 0.000000
    outer loop
      vertex 2.700000 4.166142 7.062082
      vertex 2.700000 4.410098 7.318724
      vertex 2.700000 2.700000 9.281793
    endloop
  endfacet
  facet normal 1.000000 0.000000 -0.000000
    outer loop
      vertex 2.700000 7.279820 5.725898
      vertex 2.700000 7.191066 5.383113
      vertex 2.700000 8.400000 2.700000
    endloop
  endfacet
  facet normal -0.000000 1.000000 -0.000000
    outer loop
      vertex 32.220461 2.700000 4.296762
      vertex 37.109103 2.700000 2.700000
      vertex 2.700000 2.700000 9.281793
    endloop
  endfacet
  facet normal 0.000000 1.000000 -0.000000
    outer loop
      vertex 2.700000 2.700000 9.281793
      vertex 37.109103 2.700000 2.700000
      vertex 2.700000 2.700000 2.700000
    endloop
  endfacet
  facet normal 0.000000 1.000000 -0.000000
    outer loop
      vertex 34.267279 2.700000 5.300774
      vertex 37.109103 2.700000 9.281793
      vertex 34.095439 2.700000 4.991178
    endloop
  endfacet
  facet normal -0.000000 1.000000 0.000000
    outer loop
      vertex 30.918082 2.700000 6.167942
      vertex 30.918082 2.700000 5.813852
      vertex 2.700000 2.700000 9.281793
    endloop
  endfacet
  facet normal -0.000000 1.000000 -0.000000
    outer loop
      vertex 30.918082 2.700000 5.813852
      vertex 30.989359 2.700000 5.467012
      vertex 2.700000 2.700000 9.281793
    endloop
  endfacet
  facet normal 0.000000 1.000000 -0.000000
    outer loop
      vertex 33.584790 2.700000 4.505770
      vertex 37.109103 2.700000 2.700000
      vertex 33.266887 2.700000 4.349831
    endloop
  endfacet
  facet normal -0.000000 1.000000 -0.000000
    outer loop
      vertex 30.989359 2.700000 5.467012
      vertex 31.128996 2.700000 5.141619
      vertex 2.700000 2.700000 9.281793
    endloop
  endfacet
  facet normal 0.000000 1.000000 -0.000000
    outer loop
      vertex 33.266887 2.700000 4.349831
      vertex 37.109103 2.700000 2.700000
      vertex 32.924102 2.700000 4.261077
    endloop
  endfacet
  facet normal -0.000000 1.000000 -0.000000
    outer loop
      vertex 31.128996 2.700000 5.141619
      vertex 31.331276 2.700000 4.850995
      vertex 2.700000 2.700000 9.281793
    endloop
  endfacet
  facet normal -0.000000 1.000000 -0.000000
    outer loop
      vertex 31.331276 2.700000 4.850995
      vertex 31.587918 2.700000 4.607039
      vertex 2.700000 2.700000 9.281793
    endloop
  endfacet
  facet normal 0.000000 1.000000 -0.000000
    outer loop
      vertex 32.924102 2.700000 4.261077
      vertex 37.109103 2.700000 2.700000
      vertex 32.570467 2.700000 4.243143
    endloop
  endfacet
  facet normal -0.000000 1.000000 -0.000000
    outer loop
      vertex 31.587918 2.700000 4.607039
      vertex 31.888413 2.700000 4.419739
      vertex 2.700000 2.700000 9.281793
    endloop
  endfacet
  facet normal -0.000000 1.000000 -0.000000
    outer loop
      vertex 31.888413 2.700000 4.419739
      vertex 32.220461 2.700000 4.296762
      vertex 2.700000 2.700000 9.281793
    endloop
  endfacet
  facet normal 0.000000 1.000000 -0.000000
    outer loop
      vertex 33.864795 2.700000 4.722510
      vertex 37.109103 2.700000 2.700000
      vertex 33.584790 2.700000 4.505770
    endloop
  endfacet
  facet normal 0.000000 1.000000 -0.000000
    outer loop
      vertex 34.095439 2.700000 4.991178
      vertex 37.109103 2.700000 2.700000
      vertex 33.864795 2.700000 4.722510
    endloop
  endfacet
  facet normal 0.000000 1.000000 0.000000
    outer loop
      vertex 37.109103 2.700000 9.281793
      vertex 37.109103 2.700000 2.700000
      vertex 34.095439 2.700000 4.991178
    endloop
  endfacet
  facet normal 0.000000 1.000000 -0.000000
    outer loop
      vertex 34.373280 2.700000 5.638625
      vertex 37.109103 2.700000 9.281793
      vertex 34.267279 2.700000 5.300774
    endloop
  endfacet
  facet normal 0.000000 1.000000 0.000000
    outer loop
      vertex 33.584790 2.700000 7.476024
      vertex 37.109103 2.700000 9.281793
      vertex 33.864795 2.700000 7.259284
    endloop
  endfacet
  facet normal 0.000000 1.000000 0.000000
    outer loop
      vertex 37.109103 2.700000 9.281793
      vertex 34.373280 2.700000 5.638625
      vertex 34.409103 2.700000 5.990897
    endloop
  endfacet
  facet normal 0.000000 1.000000 0.000000
    outer loop
      vertex 37.109103 2.700000 9.281793
      vertex 34.409103 2.700000 5.990897
      vertex 34.373280 2.700000 6.343169
    endloop
  endfacet
  facet normal 0.000000 1.000000 0.000000
    outer loop
      vertex 37.109103 2.700000 9.281793
      vertex 34.373280 2.700000 6.343169
      vertex 34.267279 2.700000 6.681020
    endloop
  endfacet
  facet normal 0.000000 1.000000 0.000000
    outer loop
      vertex 37.109103 2.700000 9.281793
      vertex 34.267279 2.700000 6.681020
      vertex 34.095439 2.700000 6.990616
    endloop
  endfacet
  facet normal 0.000000 1.000000 0.000000
    outer loop
      vertex 37.109103 2.700000 9.281793
      vertex 34.095439 2.700000 6.990616
      vertex 33.864795 2.700000 7.259284
    endloop
  endfacet
  facet normal 0.000000 1.000000 0.000000
    outer loop
      vertex 32.220461 2.700000 7.685032
      vertex 2.700000 2.700000 9.281793
      vertex 32.570467 2.700000 7.738651
    endloop
  endfacet
  facet normal 0.000000 1.000000 0.000000
    outer loop
      vertex 37.109103 2.700000 9.281793
      vertex 33.584790 2.700000 7.476024
      vertex 33.266887 2.700000 7.631963
    endloop
  endfacet
  facet normal 0.000000 1.000000 0.000000
    outer loop
      vertex 37.109103 2.700000 9.281793
      vertex 33.266887 2.700000 7.631963
      vertex 32.924102 2.700000 7.720717
    endloop
  endfacet
  facet normal 0.000000 1.000000 0.000000
    outer loop
      vertex 37.109103 2.700000 9.281793
      vertex 32.924102 2.700000 7.720717
      vertex 2.700000 2.700000 9.281793
    endloop
  endfacet
  facet normal 0.000000 1.000000 0.000000
    outer loop
      vertex 32.924102 2.700000 7.720717
      vertex 32.570467 2.700000 7.738651
      vertex 2.700000 2.700000 9.281793
    endloop
  endfacet
  facet normal 0.000000 1.000000 0.000000
    outer loop
      vertex 31.888413 2.700000 7.562055
      vertex 2.700000 2.700000 9.281793
      vertex 32.220461 2.700000 7.685032
    endloop
  endfacet
  facet normal -0.000000 1.000000 0.000000
    outer loop
      vertex 31.888413 2.700000 7.562055
      vertex 31.587918 2.700000 7.374755
      vertex 2.700000 2.700000 9.281793
    endloop
  endfacet
  facet normal -0.000000 1.000000 0.000000
    outer loop
      vertex 31.587918 2.700000 7.374755
      vertex 31.331276 2.700000 7.130799
      vertex 2.700000 2.700000 9.281793
    endloop
  endfacet
  facet normal -0.000000 1.000000 0.000000
    outer loop
      vertex 31.331276 2.700000 7.130799
      vertex 31.128996 2.700000 6.840175
      vertex 2.700000 2.700000 9.281793
    endloop
  endfacet
  facet normal -0.000000 1.000000 0.000000
    outer loop
      vertex 31.128996 2.700000 6.840175
      vertex 30.989359 2.700000 6.514782
      vertex 2.700000 2.700000 9.281793
    endloop
  endfacet
  facet normal -0.000000 1.000000 0.000000
    outer loop
      vertex 30.989359 2.700000 6.514782
      vertex 30.918082 2.700000 6.167942
      vertex 2.700000 2.700000 9.281793
    endloop
  endfacet
  facet normal -0.000000 1.000000 -0.000000
    outer loop
      vertex 32.570467 2.700000 4.243143
      vertex 37.109103 2.700000 2.700000
      vertex 32.220461 2.700000 4.296762
    endloop
  endfacet
  facet normal 0.000000 0.000000 1.000000
    outer loop
      vertex 37.109103 2.700000 2.700000
      vertex 37.109103 8.400000 2.700000
      vertex 2.700000 8.400000 2.700000
    endloop
  endfacet
  facet normal 0.000000 0.000000 1.000000
    outer loop
      vertex 2.700000 2.700000 2.700000
      vertex 37.109103 2.700000 2.700000
      vertex 2.700000 8.400000 2.700000
    endloop
  endfacet
endsolid OpenSCAD_Model
